<svg width="2372" height="1898" viewBox="0 0 2372 1898" fill="none" xmlns="http://www.w3.org/2000/svg">
<path d="M1912.55 1232.72C1926.69 1424.27 1575 1606.35 1127.03 1639.43C679.06 1672.5 304.444 1544.03 290.303 1352.48C276.162 1160.94 627.85 978.849 1075.82 945.777C1523.79 912.706 1898.41 1041.17 1912.55 1232.72Z" fill="url(#paint0_radial_17_2)"/>
<path d="M2176.18 893.366C2190.32 1084.91 1838.63 1267 1390.66 1300.07C942.691 1333.14 568.075 1204.68 553.934 1013.13C539.793 821.583 891.481 639.494 1339.45 606.423C1787.42 573.351 2162.04 701.819 2176.18 893.366Z" fill="url(#paint1_radial_17_2)"/>
<path d="M1618.53 884.915V1149.48C1618.53 1213.81 1566.38 1273.22 1502.02 1282.18L824.161 1376.59V1500.97C568.209 1453.69 402.388 1442.94 402.388 1318.87V1054.3C402.388 989.979 454.537 930.566 518.859 921.607L1502.02 784.672C1566.38 775.707 1618.53 820.593 1618.53 884.915Z" fill="#00D0A5"/>
<path d="M965.685 1237.12V1356.88L824.161 1376.59C824.161 1337.1 852.501 1264.7 965.685 1237.12Z" fill="url(#paint2_linear_17_2)"/>
<path d="M584.612 1046.93C599.114 1029.99 619 1019.76 644.265 1016.24C669.517 1012.73 695.4 1011.61 721.919 1012.88L713.549 1080.37C685.917 1077.86 666.937 1077.33 656.611 1078.76C643.493 1080.59 636.937 1086.76 636.937 1097.25C636.937 1101.4 640.077 1104.97 646.356 1107.96C652.635 1110.96 660.24 1113.97 669.17 1117.01C678.1 1120.05 687.03 1123.92 695.966 1128.61C704.89 1133.31 712.501 1140.76 718.78 1150.92C725.06 1161.11 728.199 1173.38 728.199 1187.75C728.199 1214 721.083 1235.29 706.846 1251.65C692.615 1268 672.452 1277.99 646.357 1281.62C620.262 1285.26 594.791 1284.79 569.957 1280.25L574.563 1217.85C604.422 1222.26 625.216 1223.64 636.938 1222.01C648.66 1220.38 654.521 1214.45 654.521 1204.22C654.521 1198.98 651.382 1194.58 645.102 1191.03C638.823 1187.49 631.212 1184.12 622.289 1180.94C613.352 1177.78 604.352 1173.92 595.286 1169.37C586.215 1164.83 578.539 1157.47 572.26 1147.29C565.981 1137.12 562.841 1124.43 562.841 1109.23C562.84 1084.64 570.091 1063.87 584.612 1046.93Z" fill="white"/>
<path d="M781.565 1028.21C797.617 1005.25 823.918 991.22 860.48 986.131C897.037 981.036 923.202 987.617 938.971 1005.87C954.734 1024.12 962.621 1056.25 962.621 1102.25C962.621 1148.26 954.527 1183.44 938.341 1207.8C922.154 1232.16 895.917 1246.86 859.638 1251.92C823.359 1256.97 797.27 1249.69 781.36 1230.08C765.449 1210.47 757.497 1177.66 757.497 1131.65C757.497 1085.65 765.514 1051.16 781.565 1028.21ZM884.549 1061.73C880.503 1053.32 872.267 1049.97 859.85 1051.7C847.427 1053.43 839.404 1059.04 835.782 1068.52C832.147 1078.01 830.339 1095.33 830.339 1120.47V1130.41C830.339 1157.22 832.36 1174.55 836.406 1182.42C840.453 1190.28 848.681 1193.35 861.105 1191.62C873.522 1189.88 881.551 1184.76 885.18 1176.24C888.802 1167.73 890.616 1150.9 890.616 1125.75V1112.49C890.616 1087.07 888.596 1070.15 884.549 1061.73Z" fill="white"/>
<path d="M1019.34 995.086C1035.39 972.124 1061.69 958.105 1098.26 953.01C1134.81 947.914 1160.98 954.502 1176.75 972.749C1192.52 991.001 1200.4 1023.12 1200.4 1069.13C1200.4 1115.14 1192.3 1150.32 1176.12 1174.68C1159.93 1199.05 1133.69 1213.74 1097.42 1218.8C1061.13 1223.85 1035.05 1216.57 1019.14 1196.96C1003.23 1177.35 995.272 1144.54 995.272 1098.53C995.273 1052.53 1003.29 1018.04 1019.34 995.086ZM1122.32 1028.61C1118.28 1020.2 1110.04 1016.85 1097.63 1018.58C1085.21 1020.31 1077.18 1025.93 1073.56 1035.41C1069.92 1044.9 1068.11 1062.22 1068.11 1087.35V1097.29C1068.11 1124.11 1070.14 1141.43 1074.19 1149.3C1078.23 1157.16 1086.46 1160.23 1098.89 1158.5C1111.3 1156.77 1119.33 1151.64 1122.96 1143.13C1126.58 1134.61 1128.4 1117.78 1128.4 1092.64V1079.37C1128.4 1053.95 1126.37 1037.03 1122.32 1028.61Z" fill="white"/>
<path d="M1431.06 1168.18L1362.41 1177.74L1308.41 1065.48L1305.05 1065.95V1185.73L1241.42 1194.59V937.215L1312.18 927.359L1363.66 1043.7L1367.01 1043.24V919.722L1431.06 910.805L1431.06 1168.18Z" fill="white"/>
<path d="M667.241 697.189V896.937C667.241 945.499 706.614 979.388 755.21 972.62L1614.32 852.964V946.869C1807.56 857.34 1932.75 814.348 1932.75 720.678V520.929C1932.75 472.367 1893.38 438.478 1844.82 445.242L755.21 597.002C706.614 603.77 667.241 648.627 667.241 697.189Z" fill="#002D4D"/>
<path d="M1507.47 777.43V867.846L1614.32 852.964C1614.32 823.149 1592.92 774.448 1507.47 777.43Z" fill="url(#paint3_linear_17_2)"/>
<path d="M853.745 764.105C853.745 782.569 855.585 795.45 859.278 802.758C862.958 810.067 869.018 813.142 877.447 811.965C885.875 810.788 897.778 807.159 913.167 801.047L921.383 844.024C904.732 852.388 887.979 857.753 871.129 860.096C845.845 863.621 827.457 857.889 815.974 842.905C804.49 827.914 798.75 803.994 798.75 771.144C798.75 738.281 804.753 712.314 816.766 693.22C828.777 674.125 848.368 662.686 875.557 658.903C891.564 656.67 906.843 657.88 921.383 662.532L912.846 712.226C896.414 709.086 884.931 707.973 878.395 708.88C869.124 710.18 862.697 715.095 859.12 723.619C855.534 732.149 853.745 745.64 853.745 764.105Z" fill="white"/>
<path d="M955.981 671.164C968.096 653.832 987.956 643.242 1015.56 639.395C1043.16 635.554 1062.92 640.527 1074.82 654.295C1086.73 668.083 1092.68 692.337 1092.68 727.073C1092.68 761.801 1086.57 788.372 1074.35 806.76C1062.12 825.154 1042.32 836.251 1014.93 840.067C987.539 843.882 967.839 838.388 955.827 823.578C943.815 808.774 937.813 783.998 937.813 749.269C937.813 714.527 943.867 688.496 955.981 671.164ZM1033.73 696.474C1030.68 690.13 1024.46 687.602 1015.09 688.908C1005.71 690.214 999.647 694.447 996.912 701.608C994.171 708.769 992.808 721.842 992.808 740.828V748.329C992.808 768.57 994.332 781.655 997.389 787.594C1000.44 793.533 1006.66 795.848 1016.03 794.536C1025.41 793.236 1031.47 789.363 1034.21 782.936C1036.94 776.509 1038.32 763.796 1038.32 744.816V734.799C1038.32 715.608 1036.79 702.831 1033.73 696.474Z" fill="white"/>
<path d="M1313.6 795.334L1263.99 802.25V700.862L1261.14 701.261L1242.49 805.242L1191.61 812.332L1173.91 713.407L1170.75 713.851V815.24L1121.76 822.059L1128.4 626.81L1199.51 616.902L1217.21 719.583L1219.74 719.229L1236.81 611.716L1306.97 601.937L1313.6 795.334Z" fill="white"/>
<path d="M1405.89 782.479L1352.17 789.968V595.645L1405.89 588.156V782.479Z" fill="white"/>
<path d="M1589.53 756.912L1537.7 764.131L1496.92 679.373L1494.39 679.721V770.159L1446.35 776.85V582.527L1499.77 575.083L1538.64 662.922L1541.17 662.568V569.318L1589.52 562.589L1589.53 756.912Z" fill="white"/>
<path d="M1745.03 598.818C1724.8 595.589 1710 594.623 1700.62 595.929C1691.24 597.229 1684.81 602.196 1681.34 610.817C1677.87 619.438 1676.13 632.563 1676.13 650.191C1676.13 667.819 1677.76 680.416 1681.02 687.995C1684.29 695.574 1690.98 698.656 1701.1 697.247C1704.04 696.835 1709.73 695.214 1718.16 692.371V668.585L1703.94 670.567V633.644L1764.31 625.229V732.568L1727.01 737.76L1721.95 728.45L1720.69 728.63C1717.1 732.053 1714.26 734.639 1712.16 736.389C1706.26 741.588 1697.93 744.94 1687.19 746.438C1643.14 752.569 1621.13 722.672 1621.13 656.752C1621.13 623.793 1626.92 597.794 1638.51 578.763C1650.1 559.733 1669.59 548.306 1696.99 544.484C1718.9 541.434 1737.76 542.148 1753.56 546.62L1745.03 598.818Z" fill="white"/>
<path d="M740.854 774.968L128.234 860.294V837.857L740.854 752.532V774.968Z" fill="#00D0A5"/>
<path d="M2256.92 768.547L1644.29 853.872V831.436L2256.92 746.11V768.547Z" fill="#00D0A5"/>
<path d="M1914.68 1166.79L1302.06 1252.11V1229.68L1914.68 1144.35V1166.79Z" fill="#002D4D"/>
<defs>
<radialGradient id="paint0_radial_17_2" cx="0" cy="0" r="1" gradientUnits="userSpaceOnUse" gradientTransform="translate(1101.43 1292.6) rotate(-4.22254) scale(813.327 347.77)">
<stop stop-color="#00D0A5"/>
<stop offset="0.0601" stop-color="#23D6B1"/>
<stop offset="0.1586" stop-color="#56E0C3"/>
<stop offset="0.2619" stop-color="#83E8D3"/>
<stop offset="0.3677" stop-color="#A9EFE1"/>
<stop offset="0.4769" stop-color="#C8F5EC"/>
<stop offset="0.5904" stop-color="#E1F9F4"/>
<stop offset="0.7102" stop-color="#F2FDFA"/>
<stop offset="0.8402" stop-color="#FCFEFE"/>
<stop offset="1" stop-color="white"/>
</radialGradient>
<radialGradient id="paint1_radial_17_2" cx="0" cy="0" r="1" gradientUnits="userSpaceOnUse" gradientTransform="translate(1365.06 953.248) rotate(-4.22254) scale(813.326 347.77)">
<stop stop-color="#002D4D"/>
<stop offset="0.0601" stop-color="#234A65"/>
<stop offset="0.1586" stop-color="#567489"/>
<stop offset="0.2619" stop-color="#8399A9"/>
<stop offset="0.3677" stop-color="#A9B9C3"/>
<stop offset="0.4769" stop-color="#C8D2D9"/>
<stop offset="0.5904" stop-color="#E1E6EA"/>
<stop offset="0.7102" stop-color="#F2F4F6"/>
<stop offset="0.8402" stop-color="#FCFCFD"/>
<stop offset="1" stop-color="white"/>
</radialGradient>
<linearGradient id="paint2_linear_17_2" x1="955.624" y1="1339.25" x2="853.849" y2="1276.63" gradientUnits="userSpaceOnUse">
<stop stop-color="white"/>
<stop offset="0.4383" stop-color="#FDFDFD"/>
<stop offset="0.6098" stop-color="#F6F6F6"/>
<stop offset="0.7346" stop-color="#EAEAEA"/>
<stop offset="0.8368" stop-color="#D9D9D9"/>
<stop offset="0.9241" stop-color="#C2C2C2"/>
<stop offset="1" stop-color="#A8A8A8"/>
</linearGradient>
<linearGradient id="paint3_linear_17_2" x1="1515.06" y1="852.418" x2="1597.47" y2="791.234" gradientUnits="userSpaceOnUse">
<stop stop-color="white"/>
<stop offset="0.4383" stop-color="#FDFDFD"/>
<stop offset="0.6098" stop-color="#F6F6F6"/>
<stop offset="0.7346" stop-color="#EAEAEA"/>
<stop offset="0.8368" stop-color="#D9D9D9"/>
<stop offset="0.9241" stop-color="#C2C2C2"/>
<stop offset="1" stop-color="#A8A8A8"/>
</linearGradient>
</defs>
</svg>
